<svg id="_0302_paris" xmlns="http://www.w3.org/2000/svg" xmlns:xlink="http://www.w3.org/1999/xlink" viewBox="0 0 500 500" data-imageid="paris-84" imageName="Paris" class="illustrations_image" style="width: 517px;"><defs><style>.cls-1_paris-84{fill:url(#linear-gradient);}.cls-1_paris-84,.cls-2_paris-84,.cls-3_paris-84,.cls-4_paris-84,.cls-5_paris-84,.cls-6_paris-84,.cls-7_paris-84,.cls-8_paris-84,.cls-9_paris-84,.cls-10_paris-84{stroke-width:0px;}.cls-2_paris-84{opacity:.4;}.cls-2_paris-84,.cls-8_paris-84,.cls-9_paris-84,.cls-10_paris-84{fill:#68e1fd;}.cls-2_paris-84,.cls-8_paris-84,.cls-10_paris-84{isolation:isolate;}.cls-3_paris-84{fill:url(#linear-gradient-4-paris-84);}.cls-4_paris-84{fill:url(#linear-gradient-2-paris-84);}.cls-5_paris-84{fill:url(#linear-gradient-3-paris-84);}.cls-6_paris-84{fill:url(#linear-gradient-5-paris-84);}.cls-7_paris-84{fill:url(#linear-gradient-6-paris-84);}.cls-8_paris-84{opacity:.78;}.cls-10_paris-84{opacity:.43;}</style><linearGradient id="linear-gradient-paris-84" x1="961.94" y1="3736.72" x2="524.32" y2="3700.35" gradientTransform="translate(-511.11 4017.1) scale(1 -1)" gradientUnits="userSpaceOnUse"><stop offset="0" stop-color="#231f20" stop-opacity="0"/><stop offset="1" stop-color="#231f20"/></linearGradient><linearGradient id="linear-gradient-2-paris-84" x1="628.49" y1="3741.42" x2="627.93" y2="3691.12" gradientTransform="translate(-471 4021.72) scale(1 -1)" xlink:href="#linear-gradient-paris-84"/><linearGradient id="linear-gradient-3-paris-84" x1="669.4" y1="3713.97" x2="666.55" y2="3611.1" xlink:href="#linear-gradient-paris-84"/><linearGradient id="linear-gradient-4-paris-84" x1="627.73" y1="3699.91" x2="628.8" y2="3741.68" gradientTransform="translate(-471 4021.72) scale(1 -1)" xlink:href="#linear-gradient-paris-84"/><linearGradient id="linear-gradient-5-paris-84" x1="581.5" y1="3689.51" x2="578.94" y2="3530.53" gradientTransform="translate(-471 4021.72) scale(1 -1)" xlink:href="#linear-gradient-paris-84"/><linearGradient id="linear-gradient-6-paris-84" x1="677.23" y1="3687.98" x2="674.67" y2="3528.99" gradientTransform="translate(-471 4021.72) scale(1 -1)" xlink:href="#linear-gradient-paris-84"/></defs><g id="background_paris-84"><path class="cls-2_paris-84 targetColor" d="M490.07,372.98c.12,8.85-.75,17.93-4.57,25.93-5.78,12.05-17.59,20.2-29.91,25.4-16.23,6.84-33.85,9.57-51.35,11.56-59.38,6.93-119.3,7.24-179.06,6.6-43.95-.48-87.86-1.46-131.71-2.93-13.75-.49-28.01-1.12-40.12-7.64-17.86-9.62-27.44-31.09-26.16-51.32,1.28-20.23,12.05-39.05,26.4-53.33,10.23-10.21,22.33-18.56,31.58-29.67,8.62-10.36,18.01-27.04,17.52-41.04-.08-2.23-.36-4.44-.82-6.62,1.05.95,2.47,1.39,3.88,1.21,1.79-.34,2.51.87,2.69,2.48.06.55.15,1.06.28,1.91,3.64-2,5.03,1.36,7.44,3,.21-2.42,1.13-3.42,3.64-1.82-.12.92-.39,1.82-.79,2.66-1.01,1.39-2.1,2.71-3.28,3.97h.98c.86.75,1.66,1.56,2.41,2.42.67.82,1,1.87,1.64,2.69,1.36,1.82.1,2.13-1.18,2.31.46,1.48.9,3,1.24,4.08-.94,1.18-2.31,2.13-2.13,2.85.39,2.54-1.06,3.12-2.97,3.3-.13,1.54-.21,2.9-.31,4.09.88.18,1.67.09,2.13.41,2.97,2.36,5.75,4.91,8.77,7.18,4.31,3.14,6.93,8.09,7.09,13.42.12,1.94.21,3.9.3,5.87-.1,2.15,1.47,4,3.6,4.25.31.09.6.22.88.37-3.6,1.36-4.52-1.57-5.57-3.85-.67-1.76-1.1-3.6-1.28-5.48-.57-3.24-1.27-6.13-4-8.67-2.27-2.13-6.38-3.08-6.38-7.59-1.14,1.45-1.93,3.14-2.33,4.93-1.18,9.51-2.13,19.01-3.19,28.52-.36,3.45-.61,6.9-.9,10.36h.33c.97-2.13,1.94-4.25,3.19-7.03,1.61,2.06,2.75,3.51,4.39,5.57h-3.97c-.49,0-1.36,0-1.46.18-.91,1.87-1.6,3.84-2.06,5.87-.57,4.25-.48,8.51-1.2,12.76-1.21,7.18-2.82,14.29-4.25,21.44-.76,3.67-1.39,7.39-2.36,11.03-.91,3.49-4,5.97-7.6,6.11-.53.15-1.05.34-1.54.57,1.46,1.33,2.64,2.36,3.75,3.45.49.52.92,1.07,1.31,1.67.66,1.12,1.06,1.88,2.66.72.97-.69,2.82-.39,4.25-.15.43.06,1.06,1.46.9,2.06-.56,2.1-1.23,4.16-2.02,6.18-.49,0-.49.18-.37.27l2.67,1.91c.43-.73.85-1.46,1.28-2.13.3-.45.6-.9.63-.97.7,1.06.97,2.13,1.57,2.39,2.06.95,4.25,1.52,6.31,2.42,3.26,1.42,6.38,3.19,10.33,1.79.3,1.15.23,2.46.84,3,1.79,1.69,3.85,3.12,5.15,4.15,1.49,0,2.28.1,3.03,0,1.09-.17,2.17-.41,3.24-.69.69-.21,1.64-.98,2.05-.73,1.91,1.06,4.06,2.03,5.39,3.67,2.82,3.45,2.57,3.05,6.67,2.13,2.3-.51,4.9-2.13,6.38,1.61.84-.79,1.51-1.39,2.13-2,0,.25.02.5.05.75l10.39.54c-.06-.79.12-1.54-.18-1.81-1.64-1.57.15-3.24-.18-4.85-.06-.21.97-1,1.33-.9,1.75.45,3.48,1.15,5.21,1.69,1.01.18,2,.43,2.97.75,1.82.95,4.6.28,5.32,3.19.06.28,1.15.52,1.75.46,3.3-.36,5.48.12,6.48,3.75.24.59.52,1.17.85,1.72.54-.66.85-1.27,1.33-1.48.9-.43,1.88-.66,2.88-.67,1.15.06,2.27.75,3.42.85,2.13.15,2.57,1.06,1.66,2.9-.38,1.03-.65,2.1-.79,3.19,1.57.1,2.79-.15,3.72.28,1.42.61,3.19,1.36,3.85,2.61,1.61,2.9,2.88,3.41,5.57,1.41,3.03-2.2,5.24-2.36,8.11-.39.94.64,1.72,1.55,2.64,2.24.54.39,1.24.94,1.79.85,1.66-.21,3.3-.72,5-1.12,0-1.77.9-2.88,3.02-2.73.36,0,.91.1,1.06-.12,2.13-2.33,4.93-2.54,7.96-2.7.94,2.95,2.93,1.82,4.99,1.24-.7-1.27-1.51-2.47-2.41-3.6-1.5-2.02-2.14-4.56-1.79-7.05.28-1.46.28-2.96,0-4.42-.06-.45-1.31-.64-1.7-1.15s-.48-1.46-.21-1.75c1.36-1.47,2.25-3.33,2.54-5.32.21-1.64.57-3.28.85-4.82.21-.1.75-.21.97-.54.73-1.13,1.06-2.54,2.03-3.42,2.13-1.94,4.25-4.79,6.72-5.15,3.49-.54,4.25-2.97,5.85-5-.88.49-1.77,1-2.64,1.52-.15-.16-.33-.31-.49-.46,1.52-1.54,3.03-3.12,4.54-4.67l.61.43-1.84,3.03c3.02-.06,9.41-5,9.9-7.57.76.05,1.53.05,2.3,0,2.06-.27,3.51.13,3.88,2.57.24.79.85,1.41,1.63,1.67,2.43.43,4.89.7,7.36.82.62-.09,1.22-.3,1.75-.64-.75-1.21-1.39-2.24-2.02-3.28l.36-.27c.46.36.9.69,1.45,1.15,1.37-1.3,2.13-4.54,4.57-2.06,1.2,1.29,1.13,3.31-.16,4.51-.02.02-.05.04-.07.06.36.49.66.95,1.23,1.7l-1.63-.57c-.21,1.48-2,3.39,1.06,3.72,2.55.3,5.13.33,7.82.48-.09-.99-.18-1.94-.3-2.87,2.41-1.21,3.57-.79,4.57,1.61.23.54.72,1.42,1.06,1.42,2.26.17,4.53.05,6.75-.36,1.9-.52,2.82-.37,2.9,1.66-.03.62-.12,1.24-.27,1.85-.31,1.75-.06,3,2.13,2.79,1.3-.1,3.3-.54,3.81.12.79,1.33,2.52,1.77,3.85.98.02-.01.04-.03.06-.04.23-.05.47.02.64.19,1.27.97,2.48,1.97,3.78,3.02-.18.24-.51.64-1.06,1.36,1.24.49,2.39,1.37,3.36,1.18.69-.12,1.12-1.63,1.69-2.57,1.21.28,2.88.61,4.54,1,.55.13,1.06.37,1.58.55-.24.45-.49.94-.82,1.61l2.27.12c.21-1.3.18-3.03.54-3.12,1.33-.21,2.68-.17,4,.12.69.26,1.32.64,1.88,1.12-.54-2.66,1-3.08,2.64-3.38.69-.16,1.79,0,1.99-.4,1.21-2.23,2.18-1.12,3.49.55.9-2,1.69-3.72,2.54-5.57-.94-.31-1.61-.49-1.75-.54,1.06-1.91,2.21-3.82,3.36-5.82,3.19.72,4.82-.18,6.18-3.57.85-2.13,3.57-3.46,5.18-3,.75-1.54,1.06-3.69,2.27-4.25s2.52-3.31,4.57-1.06l2.85-3.9c.39.27.87.61,1.15.82.94-.64,1.72-1.16,2.64-1.77-.94-1.79-1.52-3.19.33-5.41,1.68-2.06,3.21-4.22,4.6-6.49.28-.45.67-1.12.51-1.45-.66-1.67-1.54-3.19-2.21-4.54-1.29.16-2.55.5-3.75,1-3.19,1.82-5.87.87-8.66-.79-1.93-1.24-3.98-2.27-6.11-3.09-1.9-.66-5.67-5.93-5.11-7.84.09-.24.39-.43.51-.7s.49-.84.39-.9c-3.12-2.79-1-4.97.79-7.21.06,0,.06-.12.1-.21q1.23-3.02,3.75-3.93c-.56-1.58-.97-3.21-1.21-4.87-.15-2.28-1.12-3.31-3.36-2.85s-5.24-2.18-5.24-4.66c0-.98-.36-2.76-.64-2.76-2.69-.15-1.9-2.75-3.19-3.97,2.13-1.36,3.9-3.05,6.44-1.27.28.18,1.24-.21,1.61-.61,1.46-1.61,2.93-3.51,5.09-3.6,1.28.04,2.4-.86,2.63-2.13.52-2.19.88-4.42,1.06-6.67-1.22-1.53-2.57-2.96-4.03-4.25-1.02-.57-1.59-1.69-1.45-2.85.09-1.15-.18-2.03-1.61-2.06-.34,0-.91-.36-.91-.54.02-1.87-1.22-3.53-3.02-4.03-.28-.09-.49-.6-.55-.94-.72-2.23.5-4.63,2.74-5.36.2-.07.41-.12.62-.15,1.82-.51,4-3.33,3.85-5-.21-2.42-2.64-5.21-4.87-5.51.39-1.69.41-3.19-1.97-3.39-.24,0-.73-.87-.64-1.28.07-1.32.44-2.61,1.06-3.78.91-.94.88-2.43-.05-3.34-.07-.06-.14-.13-.21-.18-.94-.94-1.36-1.72-.39-3.02.26-.81.09-1.69-.46-2.34-2.42-2-8.6-1.54-11,.46-.71.58-1.59.92-2.51.97-3.45.31-5.32,3.7-3.19,6.48,1.15,1.52.39,1.88-.54,2.79-1.19,1.2-2.3,2.48-3.3,3.85-.57.7-1.06,1.46-1.95,2.67-.79-1.42-1.36-2.39-1.84-3.36s-.97-2.06-1.57-3.39c3.36-.73,5.51-2.67,5.44-6.38,0-.79.21-1.95-.24-2.31-1.87-1.64-1.6-3.24-.57-5.21.79-1.54.82-3.69,1.91-4.87,2.36-2.51,5.23-4.54,7.84-6.87.46-.54.75-1.21.82-1.91.11-.74.16-1.49.15-2.23,0-.98.39-2.13.06-2.95-.46-1.21-.33-1.9.21-2.39,2.06,2.06,4.05,4.18,6.08,6.21,14.64,14.88,30.91,28.08,48.48,39.35,19.59,12.56,41.24,23.13,56.01,41.14,13.7,16.7,20.12,38.71,20.45,60.43Z" style="fill: rgb(104, 225, 253);"/><path class="cls-10_paris-84 targetColor" d="M409.64,125.32c-2.52-2.97-6-2.36-8.91-2.51-4.2-.21-7.29-1.34-9.33-5.06-.84-1.28-2.55-1.65-3.84-.82-3.28,2.88-5.11,3.06-8.42.76-.45.55-.94,1.06-1.48,1.73-1.61-4.97-2-5.24-6.7-4.6,0,.85-.09,1.67-.15,2.54l-2.97-.94c-.61-1.06-1.06-1.82-1.48-2.64-1-2.13-2.34-4.25-2.82-6.57-.72-3.51-2-4.97-5.51-5.32-1.69-.18-3.34-.67-4.85-1.45-2.27-1.24-3.33-1.31-5.11.61s-3.33,1.72-4.69-.21c-.36-.36-.8-.64-1.28-.82-1.06-.57-2.13-1.13-3.28-1.67-.54-.3-1.23-.9-1.63-.76-2.61.97-5.78-.31-8.03,2.13-.24.28-.94.16-1.46.21,0-4.66-1.87-6.87-5.02-6.23.51-2.31-.43-3.36-2.79-3.31-.6-.04-1.16-.29-1.57-.72-.94-1.06-1.54-2.75-2.67-3.19-1.54-.63-3.19-2.05-5.15-1.06-.43.21-1.18-.21-1.75-.34,0-2.05.51-4.18-.12-5.87-.82-2.13-2-3.93-1.06-6.3.44-1.28.8-2.59,1.06-3.91.18-.72.3-1.48.45-2.2-1.12-.21-2.3-1.39-3.36.05-.87,1.21-2.33,2.49-2.33,3.72.06,4.25-3.6,4.67-6.03,6.38-.6.3-1.27.42-1.94.36-2.42,0-4.63-1.88-7.23-.82-.31.12-1.31-.91-1.67-1.57-1.18-2.06,1.36-2.61,1.82-3.85-.67-1.66-1.61-3.19-1.75-4.72s.43-3.54.72-5.64c-.85,0-1.75.06-2.64,0-.54-.06-1.41-.21-1.57-.58-1.18-2.79-3.3-2.99-5.84-2.41-.43.12-1.13.18-1.36-.06-1.97-2.13-2.91-.85-3.91,1.24-.54-1.2-.82-2.5-.84-3.82.18-3.33-1.42-5.08-4.25-6.38-1.29-.61-2.78-.61-4.06,0-.74.13-1.5-.02-2.13-.43-2.87-1.79-2.24-5.11-3.19-7.72-.24-.64-2.61-6.13-3.24-6.38-.2-.1-.44-.12-.66-.06-2.85.69-6.03.85-6.9,4.46-1.92-1.08-3.73-1.62-4.8-3.74-.54-1.06-1.3-2.9-3.42-2.48-.27,0-1.06-1.06-1.06-1.67,0-1.66.24-3.3.33-4.97.08-.52.03-1.05-.15-1.54-.91-1.87-1.91-3.69-2.97-5.66l-.88.21c-4.66,1.15-9.41,2.13-13.98,3.51-3.66,1.11-7.22,2.53-10.63,4.25-1.66.84-2.93,2.54-4.02,3.54-.43,2.82-.82,5.54-1.21,8.23-.04.48-.02.95.05,1.42.85,4.25.52,8.62.16,12.99.02,1.02.15,2.03.39,3.02-2.13,1.34-2.13,4.39.23,6.09.87.82,1.62,1.77,2.22,2.81-.17.14-.33.29-.48.46-1.06-.52-2.03-1-3.39-1.7-.76,1.18-2,2.33-2.21,3.64-.39,2.33-1.88,3.42-3.6,4.6-1.94,1.33-3.79,2.79-5.54,4.36-1.68,1.37-3.66,2.32-5.78,2.79-4.84,1.27-9.95,1.84-14.44,4.41-2.3,1.31-4.75,2.36-7.05,3.7s-4.49,2.93-5.24,5.75c-.43,1.58-.96,3.14-1.57,4.66-.61,1.52.82,4.57,2.42,4.72,2.51.31,5.05.43,7.59.61-1.06.36-2.2.43-3.26.73-2.18.48-4.3,1.2-6.33,2.13-1.67.88-2.85,2.64-4.49,3.6-2.36,1.42-4.9,2.42-7.77.9-2.42-1.3-5-2.57-7.82-2.42-4.48.21-8.72-.12-12.84-2.23-2.21-1.13-5.32.48-6.11,3.05-.52-1.45-.73-2.33-1.13-3.19-.37-.85-.89-1.62-1.54-2.29-1.51-1.3-3.39-5.39-2.39-6.21,2.51-2.05,1.85-4.15.76-6.44-1.29-.31-2.61-.53-3.93-.64-.97-.07-1.94.21-2.72.79-1.55,1.76-4.1,2.24-6.18,1.15-2.46-1.39-4.87-2.81-7.39-4.08-.73-.23-1.5-.33-2.27-.28.11,1.03.31,2.04.61,3.03.21.49,1,.76,1.54,1.06,1.82,1.06,2.13,2.48,1.46,4.41-.36.92-.44,1.92-.24,2.88.61,2.54,1.45,5.03,2.3,7.87,3.03,1.15,3.42,4.75,5.06,7.6l1.66-.43c-.43.54-.97.9-.9,1.15.31,2.11.4,4.25.24,6.38,0,1.85.94,3.7,1.21,5.6.41,3.09-1.24,6.08-.06,9.33.61,1.7,2.18,5.32,3.82,5.87.65.17,1.32.29,2,.34v.79c-1.82.09-3.6.21-5.42.33-.46.03-.91.09-1.36.18-1.87.5-3.79.83-5.72.97-2.52,0-2.88-.94-1.94-3.33.08-.49.08-.99,0-1.48-2.51.84-5.32.72-6.08,3.84-2.69-2.05-3.72,1.52-5.87,1.46-.31-.7-.64-1.46-1-2.31l-1.24.73c-.12-.85-.24-1.75-.46-3.28-.64.91-.76,1.28-1,1.42-2.05,1.06-4.69,1.24-6.11,3.54-.27.46-1.06.49-1.54.88-1.21,1.06-2.39,2.33-3.57,3.48-.21-.12-.43-.27-.64-.39.61-3-3.26-3.02-3.54-6-.21-2.05-2.67-3.93-4.36-6.23-1.39.18-2.67-.28-1.24-2.79h-2.2c-.18-.9-.33-1.69-.51-2.72-1.24.76-2.21,1.33-3.19,1.94-.49-.67-.88-1.18-.94-1.28l-5.73,2.52c-1-.49-1.87-1.24-2.59-1.13s-1.61,1.06-2.49,1.67l-1.06-1.06c.51,1.72.82,2.75,1.06,3.64-.3,1.18-.57,2.36-.9,3.57-1.28-.49-2.57-.97-3.88-1.49-3.33-1.36-4.38-.76-4.59,2.67,0,.09-.19.18-.46.48-.49-.97-.94-2.39-2.3-.72-.37-1.3-.67-2.36-1-3.66-1.16.76-2.13,1.41-3.37,2.27-2.72-2.13-3.99,2.61-6.66,2.13-.69-2-1.97-2.06-4.25-.28-.61.49-1.69,1.21-2.13.98-2.13-1.24-1.72.57-1.82,1.15-1.94.69-3.81,1.54-5.6,2.54-.95.76-1.57,1.87-1.72,3.08-.04,1.85.08,3.71.36,5.54.1.82.24,1.64.36,2.46.97-.21,1.97-.46,3.39-.79.49.06,1.52.15,2.54.28,1.82-1.06,3.64-2.13,5.46-3.13.09.21.21.39.3.61l-2.13,2.55c1.67.94,2.97,1.48,3.52,0l3.63,2.05c-1.87-.82-3.72,1.42-5.69,0-.33-.17-.71-.21-1.06-.12-1.82.85-2.88.48-3.03-1.7-.22-.02-.45-.02-.67,0-.54,1.15-1.06,2.3-1.45,3.12.79,1.79,1.54,3.48,2.33,5.21.82-1.06,1.61-2.88,2.69-3.09,1.24-.24,2.85.85,4.12,1.64s1.21,3.46.55,4.33c-1.46.15-2.57.21-3.67.39-2.54.46-5.08.94-7.59,1.52-.67.26-1.29.62-1.85,1.06.54.46,1.12.86,1.75,1.18,1.9.64,4.08.7,5.66,1.73,3.19,2.05,5.32,4.9,3.49,9.08.82.15,1.51.3,2.21.39.74.19,1.5.28,2.27.27,2.46-.3,2.97-1.36,1.82-3.51,1.97.12,3.93.28,6.06.39.12-.48.27-1.15.57-2.46.22.43.46.84.72,1.24,1.88,2.03,2.72,5.85,6.85,3.85.09,0,.27.15.39.18,1.79.57,3.54,1.06,5.32,1.69.51.18,1.27.57,1.36,1,.51,2.46,2.27,2.13,3.39,2.13,1.06-1.28,1.82-2.13,2.54-3.03.12.08.23.18.33.28-.57,1.12-1.18,2.27-1.75,3.39l.73-.37c1.39,1,2.75,2.06,4.15,3.06,1.87,1.3,2.13,3.08,1.79,5.18-.16,1.15-.18,2.64,1.66,2.66-.36-1.69-.66-3.19-.97-4.63h5.9c-.15-.52-.45-1.42-.57-1.82,1.15.12,2.33.21,3.49.3.15-2.02,1.39-1.06,2.3-.79.71.29,1.39.63,2.06,1-.24.64-.57,1.39-.91,2.21l-3.63-.54c-.57-.15-1.16-.28-1.73-.39-.15.24-.27.49-.39.69.57.49,1.42.82,1.75,1.42.67,1.24,1.28,2.03,2.91,1.52,1.06-.37,2.33,0,3.36-.39,2.1-.89,4.44-1.08,6.66-.52-2.05,1.7-1.27,2.97.24,4.06l-3.33,2.54c1.21,1.33,2.36,2.61,3.51,3.85l-.28.41c-.9-.27-1.84-.57-2.78-.84-.09.16-.17.34-.24.51,1.21.64,2.42,1.24,3.69,1.9,2.49-3.19,2.93,1,4.88,1.16,1-1.06,2.13-2.24,3.38-3.34.49-.3,1.06-.44,1.64-.39.67-.01,1.34.05,2,.19,2,.3,3.93.66,5.9,1.06l-.09.64c-.28.06-.67.28-.82.18-2.57-1.66-5.32-.66-7.93-.33-.46.18-.8.58-.9,1.06,0,1.13.69,2.39.36,3.36s-1.61,1.31-2.57,2c1.87.48,3.71,1.09,5.51,1.82,1.42.73,2.82,1.85,1.94,3.85-.78,2.06-2.04,3.92-3.66,5.41-1,2.34-.39,4.03,1.54,5.73,2.13,1.81,3.99,3.92,5.51,6.26,1.51,2.46,2.3,5.32,3.39,8,.85.43,1.9.9,2.9,1.51.34.21.64.43.97.64,1.05.95,2.47,1.39,3.88,1.21,1.79-.34,2.51.87,2.69,2.48.06.55.15,1.06.28,1.91,3.64-2,5.03,1.36,7.44,3,.21-2.42,1.13-3.42,3.64-1.82-.12.92-.39,1.82-.79,2.66-1.01,1.39-2.1,2.71-3.28,3.97h.98c.86.75,1.66,1.56,2.41,2.42.67.82,1,1.87,1.64,2.69,1.36,1.82.1,2.13-1.18,2.31.46,1.48.9,3,1.24,4.08-.94,1.18-2.31,2.13-2.13,2.85.39,2.54-1.06,3.12-2.97,3.3-.13,1.54-.21,2.9-.31,4.09.88.18,1.67.09,2.13.41,2.97,2.36,5.75,4.91,8.77,7.18,4.31,3.14,6.93,8.09,7.09,13.42.12,1.94.21,3.9.3,5.87-.1,2.15,1.47,4,3.6,4.25.31.09.6.22.88.37-3.6,1.36-4.52-1.57-5.57-3.85-.67-1.76-1.1-3.6-1.28-5.48-.57-3.24-1.27-6.13-4-8.67-2.27-2.13-6.38-3.08-6.38-7.59-1.14,1.45-1.93,3.14-2.33,4.93-1.18,9.51-2.13,19.01-3.19,28.52-.36,3.45-.61,6.9-.9,10.36h.33c.97-2.13,1.94-4.25,3.19-7.03,1.61,2.06,2.75,3.51,4.39,5.57h-3.97c-.49,0-1.36,0-1.46.18-.91,1.87-1.6,3.84-2.06,5.87-.57,4.25-.48,8.51-1.2,12.76-1.21,7.18-2.82,14.29-4.25,21.44-.76,3.67-1.39,7.39-2.36,11.03-.91,3.49-4,5.97-7.6,6.11-.53.15-1.05.34-1.54.57,1.46,1.33,2.64,2.36,3.75,3.45.49.52.92,1.07,1.31,1.67.66,1.12,1.06,1.88,2.66.72.97-.69,2.82-.39,4.25-.15.43.06,1.06,1.46.9,2.06-.56,2.1-1.23,4.16-2.02,6.18-.49,0-.49.18-.37.27l2.67,1.91c.43-.73.85-1.46,1.28-2.13.3-.45.6-.9.63-.97.7,1.06.97,2.13,1.57,2.39,2.06.95,4.25,1.52,6.31,2.42,3.26,1.42,6.38,3.19,10.33,1.79.3,1.15.23,2.46.84,3,1.79,1.69,3.85,3.12,5.15,4.15,1.49,0,2.28.1,3.03,0,1.09-.17,2.17-.41,3.24-.69.69-.21,1.64-.98,2.05-.73,1.91,1.06,4.06,2.03,5.39,3.67,2.82,3.45,2.57,3.05,6.67,2.13,2.3-.51,4.9-2.13,6.38,1.61.84-.79,1.51-1.39,2.13-2,0,.25.02.5.05.75l10.39.54c-.06-.79.12-1.54-.18-1.81-1.64-1.57.15-3.24-.18-4.85-.06-.21.97-1,1.33-.9,1.75.45,3.48,1.15,5.21,1.69,1.01.18,2,.43,2.97.75,1.82.95,4.6.28,5.32,3.19.06.28,1.15.52,1.75.46,3.3-.36,5.48.12,6.48,3.75.24.59.52,1.17.85,1.72.54-.66.85-1.27,1.33-1.48.9-.43,1.88-.66,2.88-.67,1.15.06,2.27.75,3.42.85,2.13.15,2.57,1.06,1.66,2.9-.38,1.03-.65,2.1-.79,3.19,1.57.1,2.79-.15,3.72.28,1.42.61,3.19,1.36,3.85,2.61,1.61,2.9,2.88,3.41,5.57,1.41,3.03-2.2,5.24-2.36,8.11-.39.94.64,1.72,1.55,2.64,2.24.54.39,1.24.94,1.79.85,1.66-.21,3.3-.72,5-1.12,0-1.77.9-2.88,3.02-2.73.36,0,.91.1,1.06-.12,2.13-2.33,4.93-2.54,7.96-2.7.94,2.95,2.93,1.82,4.99,1.24-.7-1.27-1.51-2.47-2.41-3.6-1.5-2.02-2.14-4.56-1.79-7.05.28-1.46.28-2.96,0-4.42-.06-.45-1.31-.64-1.7-1.15s-.48-1.46-.21-1.75c1.36-1.47,2.25-3.33,2.54-5.32.21-1.64.57-3.28.85-4.82.21-.1.75-.21.97-.54.73-1.13,1.06-2.54,2.03-3.42,2.13-1.94,4.25-4.79,6.72-5.15,3.49-.54,4.25-2.97,5.85-5-.88.49-1.77,1-2.64,1.52-.15-.16-.33-.31-.49-.46,1.52-1.54,3.03-3.12,4.54-4.67l.61.43-1.84,3.03c3.02-.06,9.41-5,9.9-7.57.76.05,1.53.05,2.3,0,2.06-.27,3.51.13,3.88,2.57.24.79.85,1.41,1.63,1.67,2.43.43,4.89.7,7.36.82.62-.09,1.22-.3,1.75-.64-.75-1.21-1.39-2.24-2.02-3.28l.36-.27c.46.36.9.69,1.45,1.15,1.37-1.3,2.13-4.54,4.57-2.06,1.2,1.29,1.13,3.31-.16,4.51-.02.02-.05.04-.07.06.36.49.66.95,1.23,1.7l-1.63-.57c-.21,1.48-2,3.39,1.06,3.72,2.55.3,5.13.33,7.82.48-.09-.99-.18-1.94-.3-2.87,2.41-1.21,3.57-.79,4.57,1.61.23.54.72,1.42,1.06,1.42,2.26.17,4.53.05,6.75-.36,1.9-.52,2.82-.37,2.9,1.66-.03.62-.12,1.24-.27,1.85-.31,1.75-.06,3,2.13,2.79,1.3-.1,3.3-.54,3.81.12.79,1.33,2.52,1.77,3.85.98.02-.01.04-.03.06-.04.23-.05.47.02.64.19,1.27.97,2.48,1.97,3.78,3.02-.18.24-.51.64-1.06,1.36,1.24.49,2.39,1.37,3.36,1.18.69-.12,1.12-1.63,1.69-2.57,1.21.28,2.88.61,4.54,1,.55.13,1.06.37,1.58.55-.24.45-.49.94-.82,1.61l2.27.12c.21-1.3.18-3.03.54-3.12,1.33-.21,2.68-.17,4,.12.69.26,1.32.64,1.88,1.12-.54-2.66,1-3.08,2.64-3.38.69-.16,1.79,0,1.99-.4,1.21-2.23,2.18-1.12,3.49.55.9-2,1.69-3.72,2.54-5.57-.94-.31-1.61-.49-1.75-.54,1.06-1.91,2.21-3.82,3.36-5.82,3.19.72,4.82-.18,6.18-3.57.85-2.13,3.57-3.46,5.18-3,.75-1.54,1.06-3.69,2.27-4.25s2.52-3.31,4.57-1.06l2.85-3.9c.39.27.87.61,1.15.82.94-.64,1.72-1.16,2.64-1.77-.94-1.79-1.52-3.19.33-5.41,1.68-2.06,3.21-4.22,4.6-6.49.28-.45.67-1.12.51-1.45-.66-1.67-1.54-3.19-2.21-4.54-1.29.16-2.55.5-3.75,1-3.19,1.82-5.87.87-8.66-.79-1.93-1.24-3.98-2.27-6.11-3.09-1.9-.66-5.67-5.93-5.11-7.84.09-.24.39-.43.51-.7s.49-.84.39-.9c-3.12-2.79-1-4.97.79-7.21.06,0,.06-.12.1-.21q1.23-3.02,3.75-3.93c-.56-1.58-.97-3.21-1.21-4.87-.15-2.28-1.12-3.31-3.36-2.85s-5.24-2.18-5.24-4.66c0-.98-.36-2.76-.64-2.76-2.69-.15-1.9-2.75-3.19-3.97,2.13-1.36,3.9-3.05,6.44-1.27.28.18,1.24-.21,1.61-.61,1.46-1.61,2.93-3.51,5.09-3.6,1.28.04,2.4-.86,2.63-2.13.52-2.19.88-4.42,1.06-6.67-1.22-1.53-2.57-2.96-4.03-4.25-1.02-.57-1.59-1.69-1.45-2.85.09-1.15-.18-2.03-1.61-2.06-.34,0-.91-.36-.91-.54.02-1.87-1.22-3.53-3.02-4.03-.28-.09-.49-.6-.55-.94-.72-2.23.5-4.63,2.74-5.36.2-.07.41-.12.62-.15,1.82-.51,4-3.33,3.85-5-.21-2.42-2.64-5.21-4.87-5.51.39-1.69.41-3.19-1.97-3.39-.24,0-.73-.87-.64-1.28.07-1.32.44-2.61,1.06-3.78.91-.94.88-2.43-.05-3.34-.07-.06-.14-.13-.21-.18-.94-.94-1.36-1.72-.39-3.02.26-.81.09-1.69-.46-2.34-2.42-2-8.6-1.54-11,.46-.71.58-1.59.92-2.51.97-3.45.31-5.32,3.7-3.19,6.48,1.15,1.52.39,1.88-.54,2.79-1.19,1.2-2.3,2.48-3.3,3.85-.57.7-1.06,1.46-1.95,2.67-.79-1.42-1.36-2.39-1.84-3.36s-.97-2.06-1.57-3.39c3.36-.73,5.51-2.67,5.44-6.38,0-.79.21-1.95-.24-2.31-1.87-1.64-1.6-3.24-.57-5.21.79-1.54.82-3.69,1.91-4.87,2.36-2.51,5.23-4.54,7.84-6.87.46-.54.75-1.21.82-1.91.11-.74.16-1.49.15-2.23,0-.98.39-2.13.06-2.95-.46-1.21-.33-1.9.21-2.39.46-.36.98-.62,1.54-.79,1.54-.51,2.85-1.72,4.39-2.27,2.24-.82,1.51-3.51,3.24-4.6,1-.55,1.9-1.27,2.66-2.13,2-2.64,3.85-5.39,5.72-8.11.29-.51.54-1.05.73-1.61-.7-.21-1.41-.36-2.13-.46-.87,0-1.75.13-2.75.18,1.57-2.45,2.9-4.51,4.25-6.51.72,0,1.75-.06,2.79-.15s1.9-.13,1.97,1.42,2.06,2.39,3.39,1.82c.54-.24,1.24-.61,1.69-.43,2.39.87,3.13-.49,3.7-2.24.7-.22,1.31-.67,1.72-1.28.54-.97,1.03-1.97,1.46-3,.99.33,2.03.51,3.08.52.33-.06.46-1.24.75-2.21-1.06.12-1.72.21-2.45.31-.64-2.31-3.09-4.09-1.49-6.82.1-.18-.06-.49,0-.7.05-1.82.31-3.62.75-5.38.85-2.21,1.85-4.25,1.64-6.75.12-.91.58-1.74,1.28-2.34,3.6-3.75,3.6-3.72,1.69-8.36-.69-1.63-1.06-3.19.57-4.72.52-.43.46-1.54.55-2.36,0-.84.05-1.68.18-2.51.87-2.88,2.13-5.6,1.63-8.78-.12-.85.67-1.9,1.21-2.69,1.18-1.7,2.49-3.28,3.79-4.91.15-.2.46-.3.7-.48,1.27-1,2.93-1.79,3.69-3.09,1.3-2.5,2.42-5.09,3.36-7.74-1.61-.46-3.87-.35-4.8-1.41ZM119.05,314.35c-.31-.06-.61-.1-.88-.13.28-2.27.54-4.51.85-7.05,2.3,2.01,2.15,4.9.03,7.18ZM116.2,349.72c.06-1.21.1-2.24.18-3.67,1.34.7,2.31,1.18,3.57,1.85-1.39.63-2.42,1.18-3.75,1.82ZM117.26,343.98c-.24-.09-.49-.15-.72-.21l.9-4.25,3.46,1.18-3.64,3.29ZM250.73,402.25c.24,0,.49-.1.72-.13.21,1.61.43,3.24.73,5.21-3.18-1.51-1.16-3.51-1.49-5.08h.03ZM315.31,389.89c-.84-1.75-1.51-3.19-2.45-5.18,1.84.51,3.19.1,3.6,1.97.12.49,1.9.61,3.12.94-.33,2.38-2.34,2.38-4.31,2.28h.03Z" style="fill: rgb(104, 225, 253);"/><path class="cls-8_paris-84 targetColor" d="M64.72,194.45l-3.48-.3.58,1.81h-5.91l.98,4.64c-1.86,0-1.82-1.52-1.66-2.68.29-2.13.06-3.86-1.79-5.18-1.41-.99-2.78-2.03-4.16-3.06l-.73.39c.58-1.14,1.18-2.28,1.78-3.41l-.35-.28-2.54,3.03c-1.06,0-2.87.36-3.4-2.13-.09-.43-.84-.82-1.36-1.01-1.74-.61-3.52-1.12-5.32-1.67-.15,0-.33-.23-.41-.19-4.13,2-4.98-1.82-6.83-3.84-.27-.4-.51-.82-.72-1.25l-.57,2.46-6.06-.38c1.16,2.13.64,3.19-1.82,3.49-.77.02-1.54-.07-2.29-.26-.69-.1-1.37-.24-2.21-.4,1.87-4.14-.26-6.97-3.45-9.03-1.58-1.06-3.79-1.06-5.67-1.72-.64-.31-1.23-.72-1.75-1.19.55-.45,1.18-.81,1.84-1.06,2.51-.57,5.04-1.06,7.58-1.5,1.06-.19,2.23-.24,3.67-.39.69-.9.68-3.57-.52-4.33s-2.9-1.88-4.15-1.65-1.87,2.07-2.68,3.07l-2.34-5.2,1.47-3.11c.22-.01.45-.01.67,0,.13,2.13,1.2,2.52,3.02,1.7.37-.13.79-.09,1.13.12,1.95,1.42,3.82-.81,5.69,0l-3.64-2.05c-.55,1.51-1.86.97-3.51,0l2.18-2.53-.32-.61-5.43,3.11-2.55-.26-3.39.8c-.12-.83-.28-1.65-.35-2.47-.3-1.84-.42-3.7-.37-5.56.15-1.21.77-2.31,1.72-3.06,1.8-1.01,3.68-1.87,5.61-2.56.09-.55-.37-2.38,1.82-1.13.38.21,1.46-.51,2.06-.99,2.27-1.79,3.52-1.72,4.25.28,2.68.41,3.93-4.25,6.67-2.19l3.34-2.27,1,3.66c1.38-1.65,1.83-.22,2.31.74.29-.3.46-.39.47-.5.2-3.42,1.27-4.03,4.6-2.66,1.3.52,2.61,1,3.88,1.49l.89-3.57-1.06-3.63,1.13,1.06c.87-.63,1.62-1.53,2.49-1.68s1.58.66,2.61,1.14l5.71-2.51.95,1.25,3.19-1.94.53,2.74h2.13c-1.45,2.5-.17,2.96,1.22,2.78,1.71,2.31,4.17,4.17,4.37,6.24.28,2.96,4.16,2.99,3.55,6l.63.39c1.19-1.17,2.35-2.36,3.58-3.48.43-.39,1.24-.45,1.52-.88,1.42-2.3,4.05-2.42,6.13-3.55.24-.14.36-.5,1.06-1.41l.44,3.25,1.24-.7,1.06,2.29c2.13.07,3.19-3.52,5.87-1.44.72-3.19,3.57-3.01,6.07-3.86.08.49.08.99,0,1.48-.93,2.4-.56,3.3,1.95,3.33,1.94-.15,3.85-.47,5.73-.97.45-.07.9-.16,1.35-.19l5.42-.33v-.77c-.67-.06-1.33-.17-1.98-.35-1.66-.58-3.19-4.18-3.84-5.86-1.17-3.19.5-6.26,0-9.35-.27-1.88-1.21-3.73-1.19-5.58.14-2.13.06-4.27-.26-6.38-.05-.26.49-.63.94-1.16l-1.68.43c-1.63-2.85-2.03-6.45-5.06-7.59-.85-2.85-1.7-5.32-2.31-7.89-.18-.96-.1-1.95.24-2.87.68-1.92.37-3.37-1.46-4.41-.55-.3-1.33-.57-1.52-1.06-.31-.99-.51-2.02-.61-3.05.77-.04,1.53.05,2.27.28,2.5,1.29,4.91,2.71,7.37,4.08,2.08,1.1,4.64.63,6.19-1.14.77-.55,1.71-.8,2.66-.72,1.32.11,2.63.32,3.92.63,1.06,2.31,1.78,4.41-.73,6.47-1.01.83.87,4.89,2.39,6.2.66.69,1.19,1.49,1.54,2.38.41,1.02.77,2.06,1.06,3.12.81-2.54,3.9-4.17,6.1-3.04,4.15,2.13,8.39,2.44,12.87,2.22,2.82-.13,5.38,1.13,7.81,2.42,2.86,1.52,5.4.53,7.78-.89,1.63-.98,2.82-2.73,4.48-3.62,2.03-.93,4.14-1.64,6.32-2.13,1.06-.31,2.22-.34,3.28-.71-2.54-.19-5.08-.32-7.61-.6-1.57-.18-3-3.19-2.4-4.74.61-1.52,1.13-3.08,1.56-4.66.78-2.83,2.9-4.42,5.24-5.76s4.75-2.38,7.06-3.7c4.48-2.56,9.57-3.13,14.44-4.42,2.12-.45,4.11-1.4,5.78-2.78,1.75-1.56,3.6-3.02,5.53-4.36,1.73-1.17,3.19-2.25,3.62-4.59.22-1.31,1.46-2.46,2.21-3.64l3.46,1.69.49-.45c-.59-1.07-1.33-2.05-2.2-2.9-2.31-1.7-2.37-4.75-.23-6.08-.24-.99-.37-2.01-.4-3.03.55-4.32.51-8.69-.13-12.99-.1-.46-.12-.94-.06-1.4.37-2.71.78-5.41,1.18-8.24,1.12-1,2.37-2.7,4.05-3.54,3.42-1.71,6.98-3.14,10.63-4.25,4.6-1.4,9.35-2.35,14.03-3.5l.86-.2c1.06,1.97,2.05,3.78,2.97,5.64.17.5.22,1.04.14,1.56-.1,1.65-.35,3.31-.32,4.96,0,.58.81,1.71,1.06,1.66,2.13-.41,2.88,1.47,3.4,2.51,1.06,2.13,2.88,2.67,4.87,3.54.89-3.62,4.08-3.75,6.9-4.48.23-.04.47-.02.69.07.62.24,3,5.72,3.19,6.38.93,2.63.28,5.94,3.19,7.73.63.4,1.39.55,2.13.41,1.29-.59,2.78-.57,4.05.06,2.83,1.35,4.43,3.11,4.25,6.38.02,1.32.3,2.61.83,3.82,1.06-2.07,1.96-3.4,3.93-1.23.22.24.91.17,1.35.07,2.53-.57,4.67-.39,5.84,2.41.15.36,1.06.52,1.57.57.88.05,1.77.05,2.65,0-.31,2.13-.89,3.9-.73,5.65.14,1.56,1.06,3.04,1.74,4.72-.46,1.22-2.98,1.77-1.8,3.85.36.66,1.34,1.67,1.65,1.55,2.63-1.06,4.82.87,7.24.84.67.05,1.34-.08,1.95-.38,2.42-1.66,6.08-2.04,6.03-6.38,0-1.22,1.46-2.51,2.32-3.71,1.06-1.47,2.23-.27,3.36,0-.15.72-.28,1.46-.45,2.13-.27,1.32-.62,2.63-1.06,3.9-.96,2.39.23,4.25,1.06,6.33.63,1.68.13,3.8.13,5.87.58.13,1.33.54,1.75.33,2.02-1.06,3.62.38,5.15,1.06,1.14.48,1.72,2.13,2.67,3.19.41.44.97.7,1.56.72,2.37-.05,3.32,1,2.81,3.32,3.13-.66,4.98,1.56,5.02,6.21.51,0,1.2.07,1.46-.2,2.24-2.4,5.42-1.06,8.02-2.13.39-.15,1.06.48,1.63.76,1.06.55,2.19,1.06,3.26,1.68.48.17.92.45,1.28.81,1.37,1.96,2.99,2.05,4.71.22s2.83-1.86,5.11-.6c1.48.8,3.09,1.31,4.75,1.52,3.5.43,4.79,1.86,5.52,5.32.48,2.29,1.82,4.4,2.82,6.57.37.82.87,1.57,1.48,2.66l2.96.91c.05-.85.11-1.68.16-2.52,4.69-.64,5.07-.38,6.69,4.58l1.48-1.7c3.31,2.28,5.15,2.13,8.43-.78,1.27-.83,2.97-.48,3.8.79,0,.01.02.03.03.04,2.04,3.7,5.13,4.85,9.34,5.05,2.9.14,6.38-.47,8.91,2.51.88,1.06,3.19.9,4.63,1.27-.94,2.66-2.07,5.25-3.36,7.76-.75,1.31-2.44,2.13-3.71,3.07-.25.14-.48.31-.7.5-1.28,1.62-2.58,3.19-3.76,4.89-.56.81-1.33,1.87-1.21,2.7.48,3.19-.78,5.91-1.65,8.77-.12.83-.18,1.67-.17,2.51-.11.82-.05,1.94-.54,2.38-1.67,1.48-1.28,3.07-.6,4.71,1.92,4.64,1.92,4.6-1.67,8.35-.69.6-1.15,1.43-1.28,2.34.21,2.49-.8,4.55-1.63,6.76-.47,1.76-.73,3.56-.77,5.38,0,.23.13.53,0,.69-1.61,2.74.86,4.53,1.49,6.82l2.46-.3c-.31.96-.43,2.13-.75,2.2-1.05,0-2.1-.17-3.11-.5-.42,1.03-.9,2.04-1.44,3.01-.43.58-1.03,1.03-1.72,1.27-.58,1.73-1.3,3.11-3.69,2.22-.46-.17-1.16.19-1.7.41-1.35.58-3.35-.33-3.4-1.81s-.85-1.53-1.96-1.41-2.13.12-2.81.16l-4.2,6.61c.92-.11,1.84-.17,2.76-.17.7.09,1.4.24,2.07.45-.19.55-.43,1.09-.72,1.6-1.87,2.73-3.72,5.49-5.72,8.12-.76.86-1.66,1.58-2.66,2.13-1.73,1.06-1.01,3.79-3.24,4.6-1.54.56-2.85,1.77-4.4,2.29-1.72.6-2.49,1.23-1.75,3.19.17.98.15,1.98-.05,2.96,0,.75-.05,1.49-.15,2.23-.08.7-.37,1.37-.82,1.91-2.58,2.32-5.47,4.35-7.83,6.86-1.06,1.18-1.12,3.32-1.94,4.86-1.06,1.97-1.3,3.57.6,5.21.44.37.23,1.53.24,2.33.05,3.66-2.13,5.57-5.46,6.31.61,1.33,1.06,2.38,1.55,3.39s1.06,1.95,1.86,3.37c.87-1.21,1.37-1.98,1.94-2.68,1.01-1.35,2.11-2.63,3.3-3.84.95-.89,1.69-1.27.56-2.78-2.13-2.8-.24-6.19,3.19-6.48.92-.07,1.8-.4,2.53-.97,2.36-2.02,8.51-2.46,10.97-.47.55.65.72,1.53.47,2.34-.98,1.29-.55,2.13.38,3.02,1.03.78,1.24,2.26.45,3.29-.06.08-.12.15-.19.22-.62,1.18-.98,2.47-1.06,3.8-.07.39.39,1.25.65,1.28,2.37.18,2.36,1.69,1.97,3.39,2.22.29,4.66,3.07,4.88,5.49.15,1.67-2.02,4.49-3.85,5-2.32.37-3.9,2.56-3.52,4.88.03.21.09.43.15.63.07.35.27.86.54.97,1.81.48,3.06,2.13,3.04,4,0,.2.58.56.89.56,1.44,0,1.71.89,1.6,2.04-.12,1.16.46,2.29,1.48,2.86,1.46,1.3,2.81,2.72,4.02,4.25-.18,2.24-.51,4.46-1.01,6.66-.26,1.26-1.38,2.15-2.67,2.13-2.13.06-3.62,2-5.06,3.58-.36.39-1.33.8-1.61.61-2.56-1.79-4.33-.09-6.48,1.28,1.35,1.21.55,3.81,3.26,3.96.28,0,.64,1.81.64,2.79,0,2.47,2.9,5.14,5.23,4.66s3.19.55,3.35,2.84c.26,1.66.67,3.29,1.22,4.87q-2.52.89-3.76,3.95c-.01.08-.04.15-.09.21-1.8,2.22-3.91,4.4-.8,7.19.09.07-.2.63-.37.93s-.45.44-.52.7c-.55,1.9,3.19,7.17,5.1,7.83,2.14.81,4.19,1.84,6.11,3.08,2.8,1.67,5.52,2.62,8.67.8,1.21-.5,2.48-.84,3.78-1.01.66,1.34,1.52,2.9,2.19,4.53.16.36-.24,1.06-.51,1.47-1.39,2.26-2.93,4.42-4.59,6.49-1.85,2.27-1.28,3.65-.35,5.41l-2.59,1.71-1.16-.81-2.85,3.91c-2.04-2.24-3.34.38-4.57,1.06s-1.5,2.76-2.24,4.33c-1.61-.47-4.34.84-5.18,2.98-1.36,3.39-3.02,4.32-6.19,3.58-1.15,1.99-2.25,3.91-3.36,5.82l1.75.53c-.84,1.85-1.62,3.57-2.53,5.57-1.31-1.67-2.28-2.76-3.5-.52-.2.37-1.3.24-1.98.37-1.65.32-3.19.73-2.64,3.39-.57-.48-1.21-.86-1.9-1.12-1.31-.28-2.67-.32-4-.12-.34.07-.32,1.81-.52,3.13l-2.27-.14.8-1.61c-.52-.18-1.06-.41-1.57-.54-1.65-.38-3.31-.72-4.53-.98-.57.91-1.06,2.42-1.71,2.55-.97.17-2.13-.7-3.35-1.19l1.06-1.35c-1.3-1.06-2.52-2.05-3.76-3.04-.18-.15-.42-.21-.65-.17-1.31.83-3.05.43-3.87-.88-.01-.02-.03-.05-.04-.07-.52-.64-2.5-.21-3.81-.1-2.24.19-2.49-1.06-2.19-2.79.16-.61.25-1.23.29-1.86-.11-2.04-1-2.13-2.9-1.68-2.23.42-4.51.55-6.77.38-.36,0-.84-.87-1.06-1.42-1.06-2.4-2.13-2.82-4.57-1.62.1.95.2,1.89.3,2.88-2.7-.15-5.26-.19-7.82-.47-3.03-.33-1.24-2.27-1.06-3.73l1.65.56-1.23-1.68c1.33-1.16,1.46-3.18.3-4.5-.02-.02-.04-.05-.06-.07-2.49-2.5-3.19.77-4.56,2.04l-1.45-1.13-.37.26,2.03,3.28c-.53.34-1.14.56-1.77.64-2.46-.13-4.92-.4-7.35-.82-.79-.26-1.41-.88-1.66-1.67-.35-2.45-1.8-2.83-3.86-2.56-.77.05-1.54.05-2.31,0-.47,2.57-6.88,7.52-9.89,7.59.61-1.06,1.22-2.03,1.84-3.04l-.6-.43-4.57,4.6.48.46,2.63-1.52c-1.6,2.03-2.34,4.47-5.85,5-2.46.36-4.63,3.19-6.72,5.16-.91.87-1.29,2.31-2.01,3.42-.21.33-.78.45-.98.54-.28,1.55-.63,3.19-.84,4.82-.29,1.99-1.18,3.84-2.54,5.32-.22.58-.14,1.23.21,1.74.39.52,1.62.71,1.68,1.16.29,1.46.29,2.97,0,4.43-.35,2.49.29,5.02,1.79,7.04.92,1.13,1.74,2.34,2.45,3.6-2.13.57-4.06,1.68-5.03-1.22-3,.14-5.82.36-7.93,2.68-.19.21-.72.15-1.06.13-2.13-.15-3.02.97-3.04,2.72-1.7.4-3.33.89-4.99,1.12-.55.07-1.25-.46-1.79-.85-.93-.7-1.7-1.6-2.65-2.24-2.87-1.96-5.08-1.82-8.09.4-2.7,1.99-3.97,1.47-5.59-1.44-.68-1.22-2.41-1.99-3.83-2.61-.94-.4-2.13-.18-3.72-.27.14-1.09.4-2.16.77-3.19.93-1.88.43-2.75-1.66-2.91-1.16-.09-2.28-.79-3.42-.85-1,.02-1.98.25-2.88.68-.47.2-.76.82-1.33,1.48-.33-.55-.61-1.13-.84-1.73-.98-3.62-3.19-4.1-6.48-3.75-.6.06-1.7-.16-1.77-.45-.72-2.89-3.52-2.22-5.32-3.19-.96-.33-1.95-.58-2.96-.74-1.75-.54-3.46-1.24-5.23-1.69-.36-.1-1.37.67-1.33.88.34,1.61-1.46,3.28.19,4.85.29.29.12,1.06.17,1.82l-10.39-.52-.05-.78-2.13,1.99c-1.47-3.7-4.07-2.13-6.38-1.58-4.07.94-3.83,1.34-6.66-2.13-1.32-1.63-3.5-2.61-5.4-3.66-.43-.23-1.34.51-2.05.7-1.05.3-2.11.53-3.19.7-1,.06-2.01.06-3.01,0-1.79-1.3-3.52-2.68-5.17-4.15-.61-.57-.54-1.85-.83-3-3.92,1.44-7.07-.38-10.34-1.81-2.05-.9-4.25-1.47-6.28-2.41-.62-.29-.89-1.31-1.57-2.39,0,.06-.36.51-.64.97-.45.71-.86,1.44-1.29,2.13-.89-.64-1.79-1.28-2.67-1.92-.11-.07-.12-.28.38-.26.7-2.05,1.52-4.07,2.03-6.18.15-.62-.5-1.99-.94-2.06-1.39-.22-3.19-.53-4.25.17-1.6,1.13-1.99.37-2.66-.73-.37-.61-.81-1.17-1.31-1.68-1.12-1.06-2.29-2.13-3.74-3.46.49-.24,1.01-.43,1.53-.57,3.61-.13,6.7-2.61,7.61-6.1.97-3.63,1.62-7.35,2.37-11.04,1.46-7.14,3.05-14.24,4.25-21.42.71-4.19.63-8.51,1.22-12.76.44-2.03,1.12-4.01,2.04-5.87.1-.22.96-.17,1.46-.18h3.97l-4.4-5.55c-1.23,2.74-2.19,4.88-3.19,7.01h-.36c.31-3.45.56-6.9.93-10.35,1-9.52,1.98-19.03,3.14-28.53.41-1.8,1.21-3.5,2.34-4.96-.05,4.54,4.08,5.49,6.38,7.62,2.72,2.53,3.42,5.41,3.99,8.67.18,1.87.61,3.7,1.27,5.46,1.06,2.28,1.98,5.23,5.58,3.85-.28-.15-.58-.27-.89-.35-2.13-.26-3.7-2.11-3.6-4.25-.1-1.97-.16-3.93-.3-5.89-.17-5.32-2.78-10.27-7.07-13.42-3.03-2.24-5.82-4.81-8.77-7.15-.45-.35-1.24-.28-2.13-.44.09-1.18.18-2.55.29-4.09,1.95-.19,3.36-.76,2.98-3.29-.12-.72,1.23-1.67,2.19-2.86l-1.27-4.08c1.3-.22,2.56-.48,1.19-2.3-.63-.84-.98-1.88-1.63-2.7-.76-.86-1.58-1.67-2.44-2.44h-.96c1.16-1.26,2.26-2.58,3.28-3.96.4-.84.66-1.74.78-2.67-2.51-1.6-3.43-.6-3.65,1.81-2.39-1.62-3.8-4.98-7.44-2.98-.13-.85-.21-1.37-.28-1.89-.19-1.62-.9-2.84-2.7-2.51-2.13.39-3.35-.91-4.85-1.84-.99-.62-2.07-1.06-2.89-1.5-1.06-2.68-1.9-5.56-3.4-8.01-1.52-2.35-3.37-4.46-5.5-6.26-1.96-1.71-2.56-3.42-1.51-5.76h0c1.62-1.5,2.88-3.35,3.68-5.41.87-2-.53-3.19-1.94-3.84-1.8-.74-3.64-1.34-5.53-1.81.98-.72,2.29-1.2,2.57-2.02s-.32-2.22-.36-3.36c.1-.48.44-.88.9-1.06,2.66-.31,5.32-1.32,7.94.34.17.11.54-.13.83-.19l.1-.63c-1.97-.35-3.93-.71-5.91-1.06-.66-.13-1.33-.19-2-.18-.58-.03-1.15.12-1.65.43-1.25,1.06-2.38,2.3-3.39,3.31-1.92-.15-2.37-4.36-4.87-1.14l-3.69-1.91.24-.52,2.79.85.28-.44-3.53-3.82,3.34-2.55c-1.51-1.06-2.3-2.37-.23-4.05-2.22-.56-4.57-.39-6.68.5-1.06.39-2.31,0-3.36.38-1.64.53-2.24-.27-2.91-1.51-.33-.61-1.15-.94-1.75-1.39l.4-.72,1.74.39,3.62.55.93-2.19c-.68-.4-1.39-.76-2.13-1.06-.84-.19-2.14-1.14-2.29.9ZM315.26,389.88c1.97.06,4,.14,4.25-2.25-1.2-.34-2.99-.46-3.11-.96-.41-1.87-1.74-1.45-3.62-1.95.96,1.99,1.65,3.42,2.47,5.16ZM118.15,314.22l.88.12c2.13-2.25,2.28-5.19,0-7.17l-.88,7.05ZM116.49,343.77l.73.2,3.65-3.33-3.46-1.16-.93,4.29ZM116.21,349.7l3.74-1.81-3.58-1.86c-.06,1.42-.11,2.49-.16,3.67ZM252.13,407.32c-.27-1.96-.5-3.57-.72-5.19l-.72.12c.34,1.57-1.68,3.56,1.45,5.07h0Z" style="fill: rgb(104, 225, 253);"/><g id="qv8HC1_paris-84"><path class="cls-9_paris-84 targetColor" d="M445.19,371.92c2.41-.27,3.6.39,3.75,2.72.1,1.62.75,3.19.93,4.81.1,1-.05,2.01-.45,2.93-1.18,2.72-1.58,5.21.27,7.95s1.68,6.21,1.48,9.49c-.08.54-.12,1.08-.13,1.62.1,2.39.33,4.78.69,7.15.52,2.65-.34,5.37-2.29,7.24-2.83,3.09-2.48,6.87-2.54,10.63.01,2.03-.25,4.06-.8,6.02-.23.79-1.71,1.2-2.86,1.95l2.44.4c-.91,1.41-1.75,2.56-2.42,3.8s-1.06,2.5-1.67,3.82l.97-.09.47.47c-.79.75-1.53,2.13-2.35,2.13-1.06.06-2.13-.9-3.39-1.49.73-1.77-.64-2.19-1.91-2.83-2.37-1.11-4.68-2.37-6.89-3.78-1.8-1.21-1.47-3.03.39-4.17.91-.64,1.79-1.33,2.63-2.06l-5.03-1.61.11-.24-2.9-.32,2.96-3.9c-.66-1.17,2.78-2.98,0-4.44-2.93,1.62-3.82,1.38-5.38-1.6h1.51c.66-1.03,1.37-2.03,2.13-2.99.7-.66.74-1.76.09-2.46-.14-.15-.31-.28-.5-.37-2.9-.57-3.89-2.32-4.02-4.98,0-.33-.4-.64-.75-1.14l4.42-1.53-2.49-2.73.39-.38-1.75-.35c.32-.5.58-1.06.95-1.49,1.12-1.41,2.97-2.46,2.3-4.76-.09-.29.19-.73.39-1.06.56-.86,1.18-1.69,1.78-2.52l-.4-.56,2.5.47c1.14-2.38,3.24-3.12,5.74-3.36.96-.12,1.85-.6,2.47-1.35,2.28-3.19,4.34-3.45,7.01-.62.1.11.29.12.54.21,1.29-1.16,1.75-2.98,1.16-4.6-.67-2.22-.74-4.19.86-6.07.29-.34,0-1.17-.05-1.77s-.2-1.38-.31-2.17Z" style="fill: rgb(104, 225, 253);"/><path class="cls-9_paris-84 targetColor" d="M115.68,280.66c.23-3.62-2.19-5.17-4.19-7.19-.97-.98-.78-3.08-1.18-5,.5.11,1,.26,1.47.47,1.12.63,2.2,1.33,3.3,2.01.07.02.14.05.21.09,2.11,1.33,2.61,7.31.39,9.62Z" style="fill: rgb(104, 225, 253);"/><path class="cls-9_paris-84 targetColor" d="M52.28,204.49c1.05.45,2.07.97,3.06,1.54.9.71,1.75,1.47,2.55,2.3-.54,1.06-3.38,1.74-4.87.46-.97-.84-1.06-2.67-1.61-4.05l.86-.24Z" style="fill: rgb(104, 225, 253);"/><path class="cls-9_paris-84 targetColor" d="M108.27,260.39c2.32-.73,6.38,1.14,6.94,3.57-.94-.26-1.71-.49-2.49-.69-1.73-.44-3.01-2.24-5.22-1.54-.45.15-1.4-1.32-2.13-2.04l.29-.7c.85-.03,1.7,0,2.54.06.06.44.08.89.06,1.34Z" style="fill: rgb(104, 225, 253);"/><path class="cls-9_paris-84 targetColor" d="M87.6,227.71c-.51-.16-1.01-.37-1.48-.64-.81-.44-1.53-1.02-2.13-1.72-.66-1.13-1.24-2.32-1.71-3.54,1.78-.18,3.08-.61,3.33,1.8.15,1.44,1.24,2.76,1.94,4.14l.05-.03Z" style="fill: rgb(104, 225, 253);"/><path class="cls-9_paris-84 targetColor" d="M64.72,194.45c.15-2.04,1.39-1.06,2.31-.8.73.3,1.44.66,2.13,1.06l-.93,2.19-3.62-.55.11-1.9Z" style="fill: rgb(104, 225, 253);"/><path class="cls-9_paris-84 targetColor" d="M269.27,391.42l-2.63,1.52-.48-.46,4.49-4.62.6.43c-.62,1.01-1.23,2.02-1.84,3.04l-.14.09Z" style="fill: rgb(104, 225, 253);"/><path class="cls-9_paris-84 targetColor" d="M82.84,238.3c-.97-1.06-3.69.85-3.19-2.74l3.52,2.19-.33.55Z" style="fill: rgb(104, 225, 253);"/><path class="cls-9_paris-84 targetColor" d="M10.26,157.89l5.43-3.11.32.61-2.18,2.53c1.65.95,2.96,1.49,3.51,0l3.64,2.05c-1.87-.8-3.74,1.44-5.69,0-.34-.21-.75-.25-1.13-.12-1.82.82-2.89.46-3.02-1.7-.22-.01-.45-.01-.67,0l-.21-.27Z" style="fill: rgb(104, 225, 253);"/><path class="cls-9_paris-84 targetColor" d="M315.26,389.88c-.82-1.73-1.51-3.19-2.45-5.16,1.87.5,3.19.07,3.62,1.95.12.5,1.9.62,3.11.96-.29,2.37-2.31,2.37-4.27,2.25Z" style="fill: rgb(104, 225, 253);"/><path class="cls-9_paris-84 targetColor" d="M118.15,314.22l.85-7.05c2.31,1.98,2.13,4.91,0,7.17l-.85-.12Z" style="fill: rgb(104, 225, 253);"/><path class="cls-9_paris-84 targetColor" d="M116.49,343.77l.93-4.25,3.46,1.16-3.67,3.3-.71-.2Z" style="fill: rgb(104, 225, 253);"/><path class="cls-9_paris-84 targetColor" d="M116.21,349.7c.05-1.21.1-2.22.16-3.67l3.58,1.86-3.74,1.81Z" style="fill: rgb(104, 225, 253);"/><path class="cls-9_paris-84 targetColor" d="M252.13,407.32c-3.13-1.51-1.06-3.48-1.45-5.07l.72-.12c.22,1.62.46,3.23.72,5.19Z" style="fill: rgb(104, 225, 253);"/></g></g><g id="paris_landmark_paris-84"><path class="cls-10_paris-84 targetColor" d="M116.38,346.05c1.34.7,2.31,1.18,3.57,1.85-1.39.66-2.42,1.18-3.75,1.82.06-1.19.1-2.25.18-3.67Z" style="fill: rgb(104, 225, 253);"/><path class="cls-10_paris-84 targetColor" d="M120.86,340.66l-3.66,3.33c-.24-.09-.49-.15-.72-.21l.9-4.25,3.48,1.14Z" style="fill: rgb(104, 225, 253);"/><path class="cls-10_paris-84 targetColor" d="M118.16,314.22c.28-2.27.54-4.51.85-7.05,2.3,1.97,2.13,4.9,0,7.18-.28-.06-.57-.1-.85-.13Z" style="fill: rgb(104, 225, 253);"/><path class="cls-10_paris-84 targetColor" d="M250.69,402.25c.24,0,.49-.1.72-.13.21,1.61.43,3.24.73,5.21-3.15-1.51-1.13-3.51-1.46-5.08Z" style="fill: rgb(104, 225, 253);"/><path class="cls-10_paris-84 targetColor" d="M315.27,389.89c-.84-1.75-1.51-3.19-2.45-5.18,1.84.51,3.19.1,3.6,1.97.12.49,1.9.61,3.12.94-.3,2.38-2.31,2.38-4.27,2.28Z" style="fill: rgb(104, 225, 253);"/><path class="cls-10_paris-84 targetColor" d="M251.42,402.12c-.23,0-.48.1-.72.13.33,1.61-1.69,3.57,1.46,5.08-.31-1.97-.52-3.6-.73-5.21ZM116.37,346.05c-.09,1.42-.12,2.46-.18,3.67,1.33-.64,2.36-1.16,3.75-1.82-1.25-.67-2.22-1.15-3.56-1.85h-.01ZM117.43,339.47l-.9,4.25c.23.06.48.13.72.21l3.64-3.33-3.46-1.14ZM119.04,307.17c-.31,2.54-.57,4.79-.85,7.05.28,0,.57.06.88.13,2.09-2.28,2.24-5.17-.05-7.18h.02ZM316.45,386.68c-.39-1.87-1.77-1.46-3.6-1.97.94,2,1.61,3.42,2.45,5.18,1.97.06,3.97.12,4.25-2.28-1.21-.33-3-.45-3.12-.94h.02ZM316.45,386.68c-.39-1.87-1.77-1.46-3.6-1.97.94,2,1.61,3.42,2.45,5.18,1.97.06,3.97.12,4.25-2.28-1.21-.33-3-.45-3.12-.94h.02ZM250.72,402.25c.33,1.61-1.69,3.57,1.46,5.08-.31-1.97-.52-3.6-.73-5.21-.24.03-.5.1-.74.13h.02ZM119.01,307.17c-.31,2.54-.57,4.79-.85,7.05.28,0,.57.06.88.13,2.12-2.28,2.27-5.17-.03-7.18ZM116.5,343.77c.23.06.48.13.72.21l3.64-3.33-3.46-1.18-.9,4.3ZM116.2,349.72c1.33-.64,2.36-1.16,3.75-1.82-1.27-.67-2.23-1.15-3.57-1.85-.09,1.41-.12,2.48-.18,3.67h0Z" style="fill: rgb(104, 225, 253);"/><path class="cls-9_paris-84 targetColor" d="M362.45,432.53c-3.29-7.61-10.89-25.27-18.35-42.93h5.77v-11.3h-10.52c-6.38-15.15-11.86-28.64-13.47-33.59l3.52-1.58v-5.67h-5.89c-6.08-12.76-10.08-133.33-11-163.96l4.18-3.95h-3.19c.06-.39.09-.78.1-1.17,0-3.13-1.81-5.71-4.17-6.2,0-.8-.05-1.69-.09-2.67.69-.39.93-1.26.54-1.94-.15-.26-.37-.46-.64-.59v-1.31c.6-.25.99-.83.99-1.48,0-.68-.42-1.28-1.06-1.5v-1.06c.58-.26.83-.94.57-1.52-.13-.28-.37-.5-.66-.61-.11-2.95-.23-5.95-.36-8.71-.13,2.75-.26,5.76-.37,8.71-.6.22-.9.88-.68,1.47.11.29.33.53.61.65v1.06c-.64.22-1.07.82-1.06,1.5,0,.65.39,1.23.99,1.48v1.31c-.71.34-1.01,1.19-.68,1.9.13.27.33.49.59.63,0,.98-.06,1.87-.1,2.67-2.36.49-4.16,3.07-4.16,6.2,0,.39.03.78.09,1.17h-3.19l4.19,3.95c-.93,30.63-4.92,151.24-11.01,163.96h-5.87v5.67l3.53,1.58c-1.63,4.96-7.12,18.44-13.47,33.59h-10.52v11.26h5.77c-7.44,17.66-15.07,35.32-18.35,42.93h-4.02v6.38h24.25v-6.38h-1.31c1.06-1.97,2.24-4.34,3.47-7.04,13.82-20.77,31.41-19.36,31.41-19.36,0,0,17.61-1.4,31.41,19.36,1.22,2.7,2.38,5.07,3.47,7.04h-1.32v6.38h24.08v-6.38l-4.02.04ZM327.76,338.7h.69v3.19h-.69v-3.19ZM325.97,338.7h.85v3.19h-.85v-3.19ZM289.37,341.89h-.55v-3.19h.55v3.19ZM291.15,341.89h-.85v-3.19h.85v3.19ZM270.33,387.05h-1.06v-6.26h1.06v6.26ZM273.88,387.05h-1.69v-6.26h1.69v6.26ZM277.42,387.05h-1.66v-6.26h1.69l-.03,6.26ZM332.42,380.79h1.72v6.26h-1.7l-.02-6.26ZM328.87,380.79h1.69v6.26h-1.69v-6.26ZM325.33,380.79h1.69v6.26h-1.69v-6.26ZM324.16,338.7h.85v3.19h-.85v-3.19ZM322.38,338.7h.86v3.19h-.8l-.06-3.19ZM323.44,380.79v6.26h-1.69v-6.26h1.69ZM320.56,338.7h.85v3.19h-.85v-3.19ZM318.77,338.7h.85v3.19h-.85v-3.19ZM316.99,338.7h.85v3.19h-.85v-3.19ZM315.21,338.7h.85v3.19h-.85v-3.19ZM313.42,338.7h.85v3.19h-.85v-3.19ZM312.49,338.7v3.19h-.85v-3.19h.85ZM308.62,334.89h-1.44s1.24-12.95,1.44-22.83c.22,9.89,1.44,22.83,1.44,22.83h-1.44ZM308.96,338.7v3.19h-.84v-3.19h.84ZM309.89,338.7h.85v3.19h-.86v-3.19ZM307.18,338.7v3.19h-.85v-3.19h.85ZM304.54,338.7h.85v3.19h-.85v-3.19ZM302.76,338.7h.86v3.19h-.86v-3.19ZM300.98,338.7h.85v3.19h-.85v-3.19ZM299.2,338.7h.85v3.19h-.85v-3.19ZM297.41,338.7h.85v3.19h-.85v-3.19ZM295.62,338.7h.85v3.19h-.85v-3.19ZM306.67,343.11h3.89c.86,2.74,5.63,17.8,11.58,35.18h-27.02c5.95-17.38,10.71-32.43,11.58-35.18h-.03ZM319.94,380.79v6.26h-1.7v-6.26h1.7ZM316.39,380.79v6.26h-1.68v-6.26h1.68ZM312.85,380.79v6.26h-1.69v-6.26h1.69ZM309.31,380.79v6.26h-1.69v-6.26h1.69ZM305.77,380.79v6.26h-1.69v-6.26h1.69ZM302.23,380.79v6.26h-1.69v-6.26h1.69ZM298.68,380.79v6.26h-1.7v-6.26h1.7ZM293.85,338.7h.85v3.19h-.85v-3.19ZM293.44,380.79h1.69v6.26h-1.69v-6.26ZM292.06,338.7h.85v3.19h-.85v-3.19ZM289.93,380.79h1.67v6.26h-1.69l.02-6.26ZM286.39,380.79h1.69v6.26h-1.69v-6.26ZM282.84,380.79h1.69v6.26h-1.69v-6.26ZM279.3,380.79h1.67v6.26h-1.69l.02-6.26ZM280.99,414.82l4.48-10.88h12.82s-8.58,2.17-17.32,10.84l.02.04ZM287.89,400.52v-1.24h41.47v1.24h-41.47ZM319,403.94h12.84l4.43,10.84c-8.68-8.67-17.27-10.88-17.27-10.88v.04ZM337.68,387.09h-1.69v-6.26h1.69v6.26ZM346.62,380.83h1.39v6.26h-1.39v-6.26ZM341.23,387.09h-1.69v-6.26h1.69v6.26ZM343.08,387.09v-6.26h1.69v6.26h-1.69Z" style="fill: rgb(104, 225, 253);"/><path class="cls-1_paris-84" d="M361.87,432.53c-3.29-7.61-10.88-25.27-18.35-42.93h5.77v-11.3h-10.52c-6.38-15.15-11.85-28.64-13.47-33.59l3.52-1.58v-5.67h-5.86c-6.08-12.76-10.08-133.33-11.01-163.96l4.19-3.95h-3.19c.06-.39.08-.78.09-1.17,0-3.13-1.8-5.71-4.16-6.2,0-.8-.06-1.69-.1-2.67.69-.38.93-1.25.55-1.94-.14-.26-.37-.46-.63-.59v-1.31c.6-.25.99-.83.99-1.48,0-.68-.42-1.28-1.06-1.5v-1.06c.58-.26.83-.94.57-1.52-.13-.28-.37-.5-.66-.61-.12-2.95-.24-5.95-.36-8.71-.14,2.75-.27,5.76-.37,8.71-.47.15-.79.57-.8,1.06,0,.47.28.88.71,1.06v1.06c-.64.22-1.07.82-1.06,1.5,0,.65.4,1.23,1,1.48v1.31c-.71.34-1.01,1.19-.68,1.9.13.27.33.49.59.63,0,.98-.06,1.87-.1,2.67-2.36.49-4.16,3.07-4.16,6.2,0,.39.03.78.09,1.17h-3.19l4.18,3.95c-.91,30.63-4.91,151.24-11,163.96h-6.05v5.67l3.52,1.58c-1.62,4.96-7.11,18.44-13.47,33.59h-10.52v11.26h5.77c-7.44,17.66-15.07,35.32-18.34,42.93h-4.03v6.38h24.26v-6.38h-1.32c1.06-1.97,2.24-4.34,3.48-7.04,13.82-20.77,31.41-19.36,31.41-19.36,0,0,17.61-1.4,31.4,19.36,1.23,2.7,2.39,5.07,3.47,7.04h-1.31v6.38h24.25v-6.38l-4.04.04ZM327.2,338.75h.69v3.19h-.69v-3.19ZM325.42,338.75h.84v3.19h-.84v-3.19ZM288.81,341.94h-.54v-3.19h.54v3.19ZM290.59,341.94h-.85v-3.19h.85v3.19ZM269.79,387.15h-1.06v-6.26h1.06v6.26ZM273.33,387.15h-1.68v-6.26h1.68v6.26ZM276.89,387.15h-1.69v-6.26h1.69v6.26ZM331.88,380.88h1.69v6.26h-1.69v-6.26ZM328.34,380.88h1.69v6.26h-1.69v-6.26ZM324.8,380.88h1.68v6.26h-1.68v-6.26ZM323.63,338.79h.85v3.19h-.85v-3.19ZM321.85,338.79h.85v3.19h-.85v-3.19ZM322.91,380.88v6.26h-1.69v-6.26h1.69ZM320.03,338.79h.85v3.19h-.85v-3.19ZM318.24,338.79h.85v3.19h-.85v-3.19ZM316.46,338.79h.85v3.19h-.85v-3.19ZM314.68,338.79h.85v3.19h-.85v-3.19ZM312.89,338.79h.85v3.19h-.85v-3.19ZM311.97,338.79v3.19h-.86v-3.19h.86ZM308.05,334.99h-1.45s1.21-12.94,1.45-22.83c.22,9.89,1.44,22.83,1.44,22.83h-1.44ZM308.39,338.79v3.19h-.84v-3.19h.84ZM309.33,338.79h.85v3.19h-.85v-3.19ZM306.61,338.79v3.19h-.85v-3.19h.85ZM303.98,338.79h.85v3.19h-.85v-3.19ZM302.19,338.79h.85v3.19h-.81l-.04-3.19ZM300.41,338.79h.85v3.19h-.85v-3.19ZM298.62,338.79h.86v3.19h-.86v-3.19ZM296.84,338.79h.85v3.19h-.78l-.07-3.19ZM295.06,338.79h.85v3.19h-.85v-3.19ZM306.1,343.21h3.9c.86,2.74,5.61,17.8,11.57,35.18h-27.02c5.95-17.47,10.72-32.53,11.58-35.27l-.03.1ZM319.37,380.88v6.26h-1.69v-6.26h1.69ZM315.83,380.88v6.26h-1.69v-6.26h1.69ZM312.29,380.88v6.26h-1.69v-6.26h1.69ZM308.74,380.88v6.26h-1.69v-6.26h1.69ZM305.19,380.88v6.26h-1.69v-6.26h1.69ZM301.65,380.88v6.26h-1.69v-6.26h1.69ZM298.11,380.88v6.26h-1.7v-6.26h1.7ZM293.27,338.79h.86v3.19h-.86v-3.19ZM292.88,380.88h1.69v6.26h-1.69v-6.26ZM291.49,338.79h.86v3.19h-.86v-3.19ZM289.36,380.88h1.68v6.26h-1.67v-6.26ZM285.81,380.88h1.69v6.26h-1.69v-6.26ZM282.27,380.88h1.69v6.26h-1.69v-6.26ZM278.72,380.88h1.69v6.26h-1.68v-6.26ZM280.42,414.91l4.47-10.88h12.84s-8.58,2.07-17.29,10.74v.14ZM287.35,400.48v-1.24h41.47v1.24h-41.47ZM318.45,403.89h12.82l4.48,10.88c-8.74-8.67-17.32-10.88-17.32-10.88h.02ZM337.14,387.05h-1.69v-6.26h1.69v6.26ZM346.08,380.79h1.38v6.26h-1.38v-6.26ZM340.69,387.05h-1.69v-6.26h1.69v6.26ZM342.54,387.05v-6.26h1.69v6.26h-1.69Z"/><rect class="cls-9_paris-84 targetColor" x="95.06" y="291.4" width="124.32" height="27.3" style="fill: rgb(104, 225, 253);"/><rect class="cls-4_paris-84" x="95.06" y="291.4" width="124.32" height="27.3"/><path class="cls-9_paris-84 targetColor" d="M157.22,324.07h-52.11v113.91h23.92v-66.34c0-25.52,28.15-25.11,28.15-25.11,0,0,28.14-.44,28.14,25.11v66.34h23.92v-113.91h-52.01Z" style="fill: rgb(104, 225, 253);"/><path class="cls-9_paris-84 targetColor" d="M157.22,313.93h-62.17v56.86h28.53c0-30.5,33.6-29.98,33.6-29.98,0,0,33.59-.52,33.59,29.98h28.56v-56.86h-62.12Z" style="fill: rgb(104, 225, 253);"/><path class="cls-5_paris-84" d="M157.22,313.93h-62.17v56.86h28.53c0-30.5,33.6-29.98,33.6-29.98,0,0,33.59-.52,33.59,29.98h28.56v-56.86h-62.12Z"/><rect class="cls-9_paris-84 targetColor" x="95.06" y="329.42" width="124.32" height="3.38" style="fill: rgb(104, 225, 253);"/><rect class="cls-9_paris-84 targetColor" x="95.06" y="327.94" width="124.32" height="1.68" style="fill: rgb(104, 225, 253);"/><rect class="cls-9_paris-84 targetColor" x="92.54" y="296.09" width="129.08" height="10.01" style="fill: rgb(104, 225, 253);"/><polygon class="cls-9_paris-84 targetColor" points="221.62 298.82 157.21 298.82 92.81 298.82 86.09 302.73 157.21 306.1 228.34 302.73 221.62 298.82" style="fill: rgb(104, 225, 253);"/><polygon class="cls-9_paris-84 targetColor" points="157.21 302.73 86.09 302.73 95.06 316.74 157.21 316.74 219.38 316.74 228.34 302.73 157.21 302.73" style="fill: rgb(104, 225, 253);"/><polygon class="cls-3_paris-84" points="157.21 302.73 86.09 302.73 95.06 316.74 157.21 316.74 219.38 316.74 228.34 302.73 157.21 302.73"/><rect class="cls-9_paris-84 targetColor" x="95.06" y="370.8" width="28.56" height="67.18" style="fill: rgb(104, 225, 253);"/><rect class="cls-9_paris-84 targetColor" x="190.81" y="370.8" width="28.56" height="67.18" style="fill: rgb(104, 225, 253);"/><rect class="cls-6_paris-84" x="95.06" y="370.8" width="28.56" height="67.18"/><rect class="cls-7_paris-84" x="190.81" y="370.8" width="28.56" height="67.18"/><rect class="cls-9_paris-84 targetColor" x="99.26" y="376.4" width="19.32" height="55.7" style="fill: rgb(104, 225, 253);"/><rect class="cls-9_paris-84 targetColor" x="101.26" y="379.1" width="15.31" height="50.12" style="fill: rgb(104, 225, 253);"/><rect class="cls-9_paris-84 targetColor" x="99.26" y="339.7" width="19.32" height="25.73" style="fill: rgb(104, 225, 253);"/><rect class="cls-9_paris-84 targetColor" x="101.26" y="342.37" width="15.31" height="20.4" style="fill: rgb(104, 225, 253);"/><rect class="cls-9_paris-84 targetColor" x="195.85" y="339.7" width="19.32" height="25.73" style="fill: rgb(104, 225, 253);"/><rect class="cls-9_paris-84 targetColor" x="195.85" y="376.4" width="19.32" height="55.7" style="fill: rgb(104, 225, 253);"/><rect class="cls-9_paris-84 targetColor" x="93.09" y="370.33" width="31.65" height="1.85" style="fill: rgb(104, 225, 253);"/><rect class="cls-9_paris-84 targetColor" x="93.09" y="369.41" width="31.65" height="1.85" style="fill: rgb(104, 225, 253);"/><rect class="cls-9_paris-84 targetColor" x="189.69" y="370.33" width="31.65" height="1.85" style="fill: rgb(104, 225, 253);"/><rect class="cls-9_paris-84 targetColor" x="189.69" y="369.41" width="31.65" height="1.85" style="fill: rgb(104, 225, 253);"/><rect class="cls-9_paris-84 targetColor" x="197.85" y="342.37" width="15.31" height="20.4" style="fill: rgb(104, 225, 253);"/><rect class="cls-9_paris-84 targetColor" x="197.85" y="379.1" width="15.31" height="50.12" style="fill: rgb(104, 225, 253);"/></g></svg>